<svg id="Ebene_1" data-name="Ebene 1" xmlns="http://www.w3.org/2000/svg" xmlns:xlink="http://www.w3.org/1999/xlink" viewBox="0 0 295.4 297.86"><defs><style>.cls-1{fill:#bababa;}.cls-2{fill:url(#Unbenannter_Verlauf_13);}.cls-3{fill:#1d1d1b;}.cls-4{fill:#161616;}.cls-5{fill:#b3b2b1;}.cls-6{fill:#616160;}.cls-7{fill:#eaeaea;}.cls-8{fill:#fff;}</style><radialGradient id="Unbenannter_Verlauf_13" cx="144.84" cy="152.58" r="92.88" gradientUnits="userSpaceOnUse"><stop offset="0.31" stop-color="#fff"/><stop offset="1" stop-color="#bababa"/></radialGradient></defs><circle class="cls-1" cx="146.62" cy="145.9" r="145.9"/><circle class="cls-2" cx="144.84" cy="152.58" r="92.88"/><path class="cls-3" d="M198.74,288a88,88,0,0,1,7.81-14.66c4.62-7,9.23-11.08,12.87-12.81,3.35-1.6,6.38-1.5,8.43.41s2.62,4.62,2,7.84c-.83,4.39-3.75,9.93-7.67,16-1.2,1.85-2.3,3.58-3.37,4.95l10.84,6.38c-1.36,2.34-2,3.53-3.27,6Zm17.22,0c1-1.33,2.22-3.09,3.6-5.21,5-7.66,6.71-13.2,3.38-16s-8.56.45-13.61,8.11a48.31,48.31,0,0,0-3.89,6.89Z" transform="translate(-175.68 -172.28)"/><path class="cls-3" d="M268.49,243.53c3.91,7.39-2,14.63-8.63,19.53-7.42,5.48-15.66,7.63-20.7,2.57-5.34-5.35-2-15.24,7.21-22C255.93,236.65,265.27,237.42,268.49,243.53Zm-24.31,17.14c3.29,3.7,9.07,3.42,14.08-.26s6.9-9,4.27-13.38c-2-3.28-7.49-5.92-14.48-.79S241.32,257.46,244.18,260.67Z" transform="translate(-175.68 -172.28)"/><path class="cls-3" d="M274.5,236.15a58.69,58.69,0,0,0-3.16-6.31c2.34-1,3.52-1.52,5.9-2.44.74,1.62,1.11,2.42,1.84,4l.3-.11c.56-3.46,4.07-6.78,8.77-8.13a12.17,12.17,0,0,1,2-.43c.42,1.49.62,2.24,1,3.73a15.77,15.77,0,0,0-2.36.52c-4.8,1.4-7.38,4.72-7.17,7.93a6.93,6.93,0,0,0,.39,1.89c1.72,4.5,2.57,6.75,4.29,11.25-2.25.85-3.37,1.3-5.57,2.26Z" transform="translate(-175.68 -172.28)"/><path class="cls-3" d="M307,213.15l.89,6.42c4.1-.56,6.17-.76,10.3-1,.08,1.25.12,1.87.19,3.12-4,.23-6.05.43-10.07,1,.67,4.82,1,7.23,1.67,12.05.39,2.77,1.78,4.14,5.21,3.81a24.8,24.8,0,0,0,3.55-.56c.19,1.22.29,1.83.47,3a25.42,25.42,0,0,1-5.26,1,12.34,12.34,0,0,1-6.71-.81c-1.84-.93-2.92-2.75-3.42-5.36-.93-4.83-1.4-7.25-2.33-12.09-2.37.45-3.55.7-5.9,1.25l-.73-3c2.4-.57,3.61-.83,6-1.28l-1-5.31C302.67,214.42,304.1,214,307,213.15Z" transform="translate(-175.68 -172.28)"/><path class="cls-3" d="M326.92,240.88c0-7.77.06-11.66.11-19.43-2.19,0-3.28,0-5.46.08l-.11-3.12c2.23-.08,3.35-.09,5.58-.08v-1.07a8,8,0,0,1,4.94-7.77,21,21,0,0,1,10.55-1.33,27.23,27.23,0,0,1,6.51,1.52c-.62,1.19-.92,1.78-1.52,3a17.2,17.2,0,0,0-4.76-1.14c-6.47-.74-8.31,2.38-8.52,5.82l-.07,1.21c3.84.22,5.76.39,9.58.88l-.4,3.1c-3.73-.48-5.61-.65-9.36-.86-.45,7.76-.68,11.64-1.13,19.4C330.49,240.93,329.3,240.89,326.92,240.88Z" transform="translate(-175.68 -172.28)"/><path class="cls-3" d="M378.91,240.92c-3.55,7.57-12.89,7.3-20.57,5.05-8.61-2.52-14.81-7.8-13.75-14.85,1.12-7.47,10.49-10.75,21.14-7.57C376.77,226.84,381.84,234.67,378.91,240.92Zm-27.69-8.8c-1,4.84,2.47,9.27,8.27,11s11.16,0,13.06-4.75c1.43-3.55.2-9.51-7.87-11.9S352.08,227.92,351.22,232.12Z" transform="translate(-175.68 -172.28)"/><path class="cls-3" d="M397,225.83c2.78,1.53,4.16,2.34,6.86,4l-17.66,28.06c-2.09-1.31-3.15-1.94-5.3-3.12Z" transform="translate(-175.68 -172.28)"/><path class="cls-3" d="M419.19,246.49c-.86,1-3.05.66-5.43-1.29-2.12-1.72-3-3.76-2.14-4.88s3.22-.8,5.48,1S420.07,245.41,419.19,246.49Zm-24.42,17.39L408.53,246c2.38,1.83,3.55,2.78,5.84,4.76-5.9,6.86-8.85,10.28-14.74,17.14C397.72,266.2,396.75,265.4,394.77,263.88Z" transform="translate(-175.68 -172.28)"/><path class="cls-3" d="M436.51,296.93c-7.44,3.78-15.17-3.24-20.33-10.32-5.79-7.93-7.91-16.13-2.88-21.2,5.33-5.37,15.15-2.12,22.27,7.75C443,283.4,442.65,293.8,436.51,296.93ZM418.3,270.51c-3.68,3.31-3.36,9.15.53,14.52s9.45,7.73,13.83,5.15c3.29-1.95,5.74-7.87.33-15.35S421.49,267.65,418.3,270.51Z" transform="translate(-175.68 -172.28)"/><path d="M175.68,320.24a149.15,149.15,0,0,1,42.54-103.76A146.56,146.56,0,0,1,378.7,183.31a149.07,149.07,0,0,1,81.36,194.13,148.73,148.73,0,0,1-80.65,81.46,148.09,148.09,0,0,1-28.16,8.49,146.77,146.77,0,0,1-58.46-.38,146.35,146.35,0,0,1-27.92-8.89,149.88,149.88,0,0,1-89.19-137.88Zm.8,0a146.72,146.72,0,0,0,3,28.35,141.1,141.1,0,0,0,8.61,27.11,144.84,144.84,0,0,0,234.25,44.91,142.53,142.53,0,0,0,1-201.7,144.76,144.76,0,0,0-156.6-32.1,144,144,0,0,0-79.18,77.74,142.84,142.84,0,0,0-8.32,27.29A147.19,147.19,0,0,0,176.48,320.24Z" transform="translate(-175.68 -172.28)"/><path d="M488.66,419.5" transform="translate(-175.68 -172.28)"/><path class="cls-4" d="M291.15,373.18" transform="translate(-175.68 -172.28)"/><path class="cls-5" d="M275.39,385.42c-.32-2.59-.43-2-.66-4.12-1.45-13.27,4-25.34.85-27.44a4,4,0,0,1-1.13-.93,5.74,5.74,0,0,1-.84-4.4c.55-3.3,2.95-3.35,5.62-8,1.07-1.86.81-2.22,2.53-5.15a24.35,24.35,0,0,1,3.18-4.5c1-1.11,1.42-1.34,3.28-3.09,1.11-1.05,2.15-2.06,3.37-3.37,2-2.12,1.91-2.41,3.18-3.74a22.7,22.7,0,0,1,5.06-3.94,23,23,0,0,1,7.58-2.62,24.86,24.86,0,0,1,9.09.09,5.72,5.72,0,0,1,3.65,1.6,5.25,5.25,0,0,1,1.12,3.27c.27,4.37-1.41,6-2.06,10.87-.21,1.59.07.66-.19,7.11-.15,3.93-.26,4.31-.28,6.74,0,4.29.28,4.34,0,6.18-.45,3-1.31,3-2.24,6.56-.16.6-.46,3.16-1,8.24-.44,3.89-.55,4.89-1.12,6.46-.75,2.07-1.22,2.13-1.68,3.93-.69,2.68.18,3.17-.38,6-.6,3-1.72,3-1.59,5.05" transform="translate(-175.68 -172.28)"/><path class="cls-6" d="M285.5,277a9.05,9.05,0,0,0-1.22,3c-.13.64-.21,1.43.19,5.9.17,1.93.19,1.87.19,2.25a13.45,13.45,0,0,1-1.41,5.15c-1.41,3.92-.41,9.65,2.06,12a8.34,8.34,0,0,1,2.25,2.81c.5,1.08.38,1.53.75,2.16.5.86,1.77,1.77,5.24,1.78v10.11c.46-.39,1.13-.95,2-1.59,2.57-2,5.43-4.15,8.61-5.15a13.46,13.46,0,0,1,7.46-.56c1.33.31,3.21.76,4.34,2.34s.39,2.83,1.13,5.52A20,20,0,0,0,319.4,328l2.34-5.43a42.65,42.65,0,0,1-1.22-10.49c0-3.44.45-3.45.47-7.4,0-5.21,0-8.71-1.87-12.26a11.3,11.3,0,0,1-1.59-3.28c-.65-2.76.58-4.24.93-6.74.78-5.55-3.58-10.41-4.49-11.43a15,15,0,0,0-6.46-4.49c-5.19-1.73-9.73.37-14.8,2.71-3,1.38-4.64,2.7-5.8,4.5A10.42,10.42,0,0,0,285.5,277Z" transform="translate(-175.68 -172.28)"/><path class="cls-4" d="M265.56,359.86c1.13-.34,1.89.25,3.27-.47a4.15,4.15,0,0,0,2-2.06c.36-.95,0-1.29.37-2.06a3.51,3.51,0,0,1,2.16-1.5c1.43-.41,2.1.17,3,0s2.23-1.32,3.19-5.34a28.11,28.11,0,0,0,3.74-6.08c1.71-3.82,2.34-5.44,2.34-5.44a9.42,9.42,0,0,1,.94-2.06,7.88,7.88,0,0,1,4.68-2.9,11.43,11.43,0,0,1,7.87,1.31c2,1.05,1.53,1.46,4.49,3.19,2.1,1.22,3.09,1.44,4.4,2.81.82.84,1.91,2,1.78,3.46a3.71,3.71,0,0,1-1.78,2.72c-1.36.82-2.31.13-3.74.74a5.59,5.59,0,0,0-2.62,3.09c-3.56,7.6-9.84,13.59-14.7,20.42s-6.52,8.83-8.9,9.55c-.62.19-2.39.62-2.81,1.87s.83,2.5.09,3.84a3.64,3.64,0,0,1-.93,1,3.88,3.88,0,0,1-1.69.94c-1.7.25-3.37-2.29-3.84-3-.94-1.43-.54-1.61-1.4-2.62-1.09-1.28-2.05-1.37-2.53-2.62-.27-.72,0-.88-.28-1.78a6,6,0,0,0-1.69-2.62c-1.91-2.14-1.27-6-1-7.59C262.11,365.42,262.88,360.66,265.56,359.86Z" transform="translate(-175.68 -172.28)"/><path class="cls-7" d="M287,332.79a6.78,6.78,0,0,1,2.15-2.34c2.26-1.36,5.14-.28,7.87.75,1.05.4,1.18.53,6.65,3.65,4.21,2.42,5.39,3,6.18,4.69a5.22,5.22,0,0,1,.37,4.12,5.5,5.5,0,0,1-3.56,2.81,7.11,7.11,0,0,1-3.18.28l.75-1.5a12.45,12.45,0,0,0,2-.38,3.68,3.68,0,0,0,2.06-1.21,3.22,3.22,0,0,0,.38-2.53c-.33-1.36-1.42-2.11-3.37-3.37a66.41,66.41,0,0,0-6.84-4.12c-4.11-2-5.63-2-6.18-2a6.41,6.41,0,0,0-3.65,1c-1.7,1.2-2.1,3.09-2.34,3S286.25,334.14,287,332.79Z" transform="translate(-175.68 -172.28)"/><path class="cls-6" d="M328.81,309.53a52,52,0,0,0-.33-5.39c-.48-4.16-.75-6.28-2.25-8-1.31-1.53-2-1-3.18-2.53-.74-1-.88-1.66-2-6.46-.9-4-1-4.33-1.17-4.92-.87-2.88-1.24-2.88-1.4-4.31a11.4,11.4,0,0,1,1.12-5.8,19.17,19.17,0,0,1,3-5,17.35,17.35,0,0,1,16.48-6.64c2.33.24,5.19.55,7.86,2.62,2.29,1.76,3.24,3.88,4.36,6.37a28,28,0,0,1,2.48,10.86,8.33,8.33,0,0,0,.14,2,9.14,9.14,0,0,0,1.64,3.51c1.85,2.87,1.29,7.75-.09,10.68-.83,1.74-2,2.88-1.83,4.87a4,4,0,0,1-.05,2.06,3.86,3.86,0,0,1-2.53,1.92q-.18,6.57-.37,13.15Z" transform="translate(-175.68 -172.28)"/><path class="cls-5" d="M324.63,387.3c-.1-.95-.14-1.29-.69-5.81-.74-6.1-.88-7.3-1.19-9.63-.15-1.16-.31-2.36-.5-3.67-.87-6.25-1.52-8.79-2.38-15.54-.3-2.32-.49-3.69-.66-5.58-.82-9.18-1.29-14.54.94-20.17.89-2.26,2.59-5.52,4.68-9.51.64-1.22,1.18-2.23,1.54-2.9a4.13,4.13,0,0,0,1.27-2.3c.17-1.11-.32-1.68,0-2.2.48-.78,2.25-.59,4.16-.18a31,31,0,0,1,7.36,2.57c4,2,4.43,2.73,7.25,4.07a32.47,32.47,0,0,0,7.26,2.44,3.17,3.17,0,0,0,.28,2.53,3.42,3.42,0,0,0,1.22,1,8.47,8.47,0,0,0,2.06.89c2.16.59,4.53,5.32,4.87,6,4.88,9.77,4.5,8.38,5.19,10.26,1.71,4.6,1.87,7.14,3.28,10a9.22,9.22,0,0,1,.89,2.57c.26,1.39,1.1,4.07,1,4.83-1.53-.18-4-1.85-5.52-2a73,73,0,0,0-5.15-8c-2.38-3.19-2.9-3.29-4.07-5.43-1.8-3.25-1.38-4.38-3.42-8.1a23.62,23.62,0,0,0-3.23-4.68A23,23,0,0,0,345,324c-2.2-1.21-3.79-2.08-6.13-2.3A12.89,12.89,0,0,0,330.4,324a14.92,14.92,0,0,0-4.26,4.87,20.53,20.53,0,0,0-2.43,6.09,27.63,27.63,0,0,0-.52,6.6c0,3.47,0,5.24.66,6.83a9.4,9.4,0,0,0,3.51,4.26,11,11,0,0,0,5.52,1.55,16.08,16.08,0,0,0,4.31-.24q1.62,2.92,3.51,6c1.7,2.75,4,4.24,5.67,6.63a2,2,0,0,0,.48,1.74c.42.29.53.15.89.49.2.19,1,.31,1,.51a11.83,11.83,0,0,0-3.05,2.05,1.43,1.43,0,0,0-.2,1.57,1.74,1.74,0,0,0,2.31,1.05c1.08-.39,1.37-1.37,2.34-1.31.36,0,.8.19.84.42s-.1.33-.7.7c-1.26.79-1.05.78-1.4,1.23-.51.65-.84,1.39,0,1.88a2.54,2.54,0,0,0,2.57,0c.51-.35.77-.75,1-.65s.12.89.52,1.35.88.58,2.48.19a13.79,13.79,0,0,0,1.78,2.62,14.81,14.81,0,0,0,5.62,4,17.54,17.54,0,0,0,3.69,1.13c2.17.41,2.8.46,3.33.32a4.5,4.5,0,0,0,2.29-1.54l.08,5.43" transform="translate(-175.68 -172.28)"/><path d="M368.56,337.71c-3.49-4.34-3.6-2.6-3.7-2.53s2.72,3.89,3.46,8.24a22.33,22.33,0,0,0,1,3.84c.51,1.71,1.14,2.42,1.82,4.73.51,1.72.76,2.59.33,3.09-.95,1.11-4.38-.55-4.59-.66-2.09-3.18-3.92-5.84-5.33-7.86-2.46-3.49-3.06-4.19-4.17-6.09-2.64-4.51-1.95-5.25-3.89-8.47a23.54,23.54,0,0,0-9.46-8.66c-2.14-1.06-5-2.47-8.52-1.78a11.73,11.73,0,0,0-4.73,2.29c-5.13,3.88-6.79,10-7.35,12.6-.45,1.63-2,8,1.41,13.43a9.07,9.07,0,0,0,11.8,4.08c2.58,4.43,4.7,7.71,5.78,9.26a17.3,17.3,0,0,0,2.5,3.24,2,2,0,0,1,.89,1c.19.55-.09.81.1,1.17.38.75,2,.43,2.06.84.05.23-.4.45-1.5,1.27-1.26.93-1.39,1.17-1.45,1.36a2,2,0,0,0,.84,2.1,2.87,2.87,0,0,0,2.81-.42c.72-.49.95-1.08,1.5-1,.36,0,.76.34.75.61,0,.52-1.52.39-2.39,1.45a2.08,2.08,0,0,0-.42,2.2c.61.86,3,.66,3.88-.33.1-.11.3-.37.47-.32s.14.9.52,1.35.88.58,2.48.19a12.72,12.72,0,0,0,1.87,2.81,16.12,16.12,0,0,0,5.53,3.79c2,1,3,1.49,4.26,1.59a8.93,8.93,0,0,0,5-1.21c5-2.62,6.65-8.57,7-9.83a6,6,0,0,0,2.67.6c2.05,0,3.51-1.19,5.39-2.71a22.37,22.37,0,0,0,3.65-3.79,29.08,29.08,0,0,0-.56-6.46c-.72-3.55-1.24-6.11-3.28-7.82s-3.58-.58-5.81-2.63c-1-.92-.95-.76-3.65-4.68" transform="translate(-175.68 -172.28)"/><path class="cls-5" d="M341.78,364.73a51,51,0,0,0,15.35-10.59,50.42,50.42,0,0,0,6-7.3c-3.73-6.08-6.72-11.08-8.81-14.61-2.67-4.52-3.51-6-5.24-7.49-4.42-3.77-12.25-6.34-18.26-3-3.82,2.12-5.32,5.76-6.74,9.17s-4.8,11.59-.47,18.17a17.13,17.13,0,0,0,9.74,7C336.07,359.13,339.06,361.64,341.78,364.73Z" transform="translate(-175.68 -172.28)"/><path class="cls-8" d="M342.43,362.85a53.63,53.63,0,0,0,7.33-4.43,52.85,52.85,0,0,0,6.29-5.8,59.63,59.63,0,0,0,4.42-5.48,3.25,3.25,0,0,0,.53-1.06.83.83,0,0,1,1.27-.43l.4.29a.81.81,0,0,1,.24,1.06c-.3.56-.62,1.21-1.25,2.25-1.28,2.15-1.55,2.64-2.07,3.37a21.35,21.35,0,0,1-3.44,3.62,63.15,63.15,0,0,1-8.08,6.14c-1.09.71-2.63,1.26-4.47,2.25-.36.2-1.3-.51-1.54-.84" transform="translate(-175.68 -172.28)"/></svg>